<svg xmlns="http://www.w3.org/2000/svg" width="146" height="36" viewBox="0 0 146 36" fill="none"><g clip-path="url(#clip0_137_3)"><path d="M5.60633 28.4664C5.60633 30.0248 7.07685 31.293 8.88809 31.293H22.237V36H5.57271C2.48373 36 0 33.8864 0 31.293V17.1055H5.57271V28.4367L5.60633 28.4687V28.4664Z" fill="white"></path><path d="M27.8098 36.0006V17.1357H33.3489V36.0006H27.8098Z" fill="white"></path><path d="M38.8945 28.9215V17.1035L61.1226 17.1355C64.2205 17.1355 66.7043 19.2445 66.7043 21.8426V31.2933C66.7043 33.8868 64.2205 36.0004 61.1226 36.0004H38.8945V31.2933L57.8095 31.259C59.6319 31.259 61.1248 29.9954 61.1248 28.4348L61.1652 24.6668C61.1652 23.1085 59.6655 21.8403 57.8095 21.8403H44.4717V28.9192H38.8945V28.9215Z" fill="white"></path><path d="M94.4492 17.1352C97.5068 17.1352 99.9883 19.2442 99.9883 21.8422L100.024 36H94.4469V31.293H80.0803V26.5539H94.4469L94.4761 24.6688C94.5097 23.1104 92.9764 21.8422 91.1316 21.8422H81.1339C79.2845 21.8422 77.7849 23.1104 77.7849 24.6688V36H72.2122V21.8125C72.2122 19.2122 74.6914 17.1055 77.7849 17.1055H94.4447V17.1375L94.4492 17.1352Z" fill="white"></path><path d="M133.342 36.0004C133.342 33.7748 132.649 32.3718 131.481 31.2545L130.903 30.6946C129.165 29.038 126.7 26.9747 124.175 24.957L117.915 20.0991C115.485 18.2849 113.752 17.1035 113.752 17.1035H108.159C108.159 17.8279 108.482 18.5134 109.179 19.1052H109.183L111.768 21.2119L115.52 24.267C112.705 26.4971 109.867 28.8461 107.928 30.6923L107.354 31.2522C106.182 32.3718 105.494 33.7725 105.494 35.9981H111.107C111.107 35.1001 110.86 34.7002 113.234 32.4678L115.225 30.8454C117.381 29.1591 118.506 29.0037 119.416 29.0037C120.327 29.0037 121.45 29.1591 123.604 30.8454L125.599 32.4678C127.966 34.6979 127.726 35.1001 127.726 35.9981H133.339L133.342 36.0004Z" fill="white"></path><path d="M129.219 0H125.081V4.21809H129.219V0Z" fill="white"></path><path d="M145.998 0H141.86V4.21809H145.998V0Z" fill="white"></path><path d="M145.998 17.1035H141.86V21.3216H145.998V17.1035Z" fill="white"></path><path d="M130.674 17.1035H125.081C125.081 17.1035 123.458 18.2117 121.151 19.9255L124.991 22.8982L127.069 21.2119L129.656 19.1075C130.353 18.5134 130.676 17.8301 130.676 17.1035H130.674Z" fill="white"></path></g><defs><clipPath id="clip0_137_3"><rect width="146" height="36" fill="white"></rect></clipPath></defs></svg>